<?xml version="1.0" encoding="utf-8"?>
<!-- Generator: Adobe Illustrator 23.0.3, SVG Export Plug-In . SVG Version: 6.00 Build 0)  -->
<svg version="1.1" id="Camada_1" xmlns="http://www.w3.org/2000/svg" xmlns:xlink="http://www.w3.org/1999/xlink" x="0px" y="0px"
	 viewBox="0 0 560 288" style="enable-background:new 0 0 560 288;" xml:space="preserve">
<style type="text/css">
	.st0{fill:#C96333;}
</style>
<g>
	<path d="M419.7,187c-5.4,0-10.6,0-15.9,0c0-20.9,0-41.8,0-62.8c8.9,0,17.9,0,27,0c1.1,3.1,2.3,6.3,3.5,9.5
		c5,13.7,10.1,27.4,15.1,41.1c0.3,0.8,0.5,1.6,1.7,1.1c0-17.1,0-34.3,0-51.6c5.4,0,10.6,0,15.8,0c0,21,0,41.8,0,62.8
		c-8.7,0-17.4,0-26.2,0c-1.4-3.6-2.8-7.2-4.2-10.9c-5.1-13.3-10.1-26.5-15.1-39.8c-0.3-0.8-0.5-1.5-1.8-1.1
		C419.7,152.4,419.7,169.7,419.7,187z"/>
	<path d="M167.4,124.2c11.8,0,23.5-0.2,35.2,0.1c3.6,0.1,7.3,0.9,10.7,2.1c8,2.6,12.3,8.8,12.5,17.4c0.2,8.3-3.2,14.6-10.6,18.6
		c-0.3,0.2-0.7,0.4-1.1,0.6c3.7,8,7.4,15.9,11.2,23.9c-5.9,0-11.5,0-17.4,0c-3-6.9-6.1-13.9-9.1-21c-5.2,0-10.3,0-15.5,0
		c0,7,0,14,0,21c-5.3,0-10.6,0-15.9,0C167.4,166.1,167.4,145.2,167.4,124.2z M183.3,155.1c2.5,0,4.8,0,7.2,0
		c3.6-0.1,7.3,0.1,10.8-0.3c7.5-1,11-9.9,6.3-15.9c-2.3-3-5.6-3.8-9.1-3.9c-4.8-0.1-9.7,0-14.5,0c-0.2,0-0.4,0.1-0.7,0.1
		C183.3,141.7,183.3,148.3,183.3,155.1z"/>
	<path d="M297.8,187c-5.3,0-10.5,0-15.9,0c-1-3.7-2.1-7.5-3.1-11.3c-9.3,0-18.5,0-27.8,0c-1,3.8-2.1,7.5-3.1,11.3
		c-5.3,0-10.5,0-15.9,0c5.9-21,11.8-41.9,17.7-62.8c10.2,0,20.2,0,30.4,0C285.9,145.1,291.8,166,297.8,187z M275.7,164.6
		c-2.7-10.1-5.4-20-8-30c-1.9,0-3.8,0-5.7,0c-2.7,10-5.3,20-8,30C261.3,164.6,268.4,164.6,275.7,164.6z"/>
	<path d="M524.4,176.8c0-4.2,0-8.2,0-12.3c-2.3,0-4.6,0-7,0c0-3.7,0-7.4,0-11.1c7.5,0,15,0,22.7,0c0,10.8,0,21.6,0,32.6
		c-2.1,0.3-4.2,0.6-6.3,0.8c-8.4,0.8-16.8,1.7-25.3,1.2c-6.1-0.3-12.1-1.4-17.3-5c-5-3.4-7.7-8.3-8.8-14.1c-1.9-9.5-2-18.9,0.5-28.3
		c2.5-9.7,9.2-14.9,18.9-16.6c7.3-1.3,14.7-1.1,22.1-0.4c5.4,0.5,10.8,1.2,16.5,1.8c-0.2,3.4-0.3,6.7-0.4,9.7
		c-9.2-0.3-18.3-0.6-27.3-0.8c-1.8,0-3.7,0.3-5.5,0.7c-5.5,1.2-8,5.3-8.8,10.5c-1.1,7.2-1.2,14.5,0.2,21.7c1.1,5.8,4.8,9.2,10.7,9.6
		C514.2,177,519.2,176.8,524.4,176.8z"/>
	<path class="st0" d="M107.8,117.4c13.6,0,27.1,0,40.7,0c0.6,0,1.2,0,1.8,0c1.6,0.2,2.4,1.3,2.1,2.9c-0.1,0.6-0.3,1.2-0.6,1.6
		c-2.7,3.4-5.3,6.9-8.4,10c-2.7,2.7-6.2,3.7-10.2,3.7c-26.7-0.1-53.4,0-80.2,0c-1.4,0-2.9,0.2-3.7-1.2c-0.8-1.5,0-2.9,0.9-4.1
		c2-2.6,3.9-5.3,6.2-7.7c3.2-3.4,7-5.3,11.9-5.3C81.5,117.5,94.6,117.4,107.8,117.4z"/>
	<path class="st0" d="M75.6,161.6c-13.6,0-27.1,0-40.7,0c-0.6,0-1.2,0-1.8-0.1c-1.5-0.2-2.4-1.3-2-2.8c0.3-1,0.7-1.9,1.3-2.7
		c1.8-2.4,3.6-4.8,5.6-7c3.2-3.6,7.2-5.6,12.2-5.6c26.7,0.1,53.3,0,80,0c1.4,0,3-0.3,3.8,1.2c0.9,1.6-0.1,3.1-1,4.3
		c-1.9,2.5-3.7,4.9-5.8,7.2c-3.2,3.5-7.1,5.5-12.1,5.5C102,161.5,88.8,161.6,75.6,161.6z"/>
	<path class="st0" d="M73.8,170.3c13.6,0,27.2,0,40.8,0c1.3,0,2.8-0.2,3.5,1.3c0.7,1.4,0.1,2.7-0.8,3.8c-2.1,2.8-4.2,5.7-6.7,8.2
		c-3.1,3.3-7,5-11.6,4.9c-26.6-0.1-53.2,0-79.9,0c-1.4,0-3.1,0.3-3.9-1.3c-0.8-1.6,0.2-3.1,1.1-4.3c1.8-2.4,3.6-4.9,5.7-7.1
		c3.2-3.5,7.1-5.6,12.1-5.5C47.4,170.4,60.6,170.3,73.8,170.3z"/>
	<path d="M357.2,176.1c0,3,0,6.4,0,10c-2.3,0.3-4.8,0.9-7.3,1c-6.6,0.4-13.2,0.9-19.8,0.9c-5.8,0-11.4-1.2-16.4-4.6
		c-4.6-3.2-7-7.8-8.1-13.1c-1.7-7.6-1.8-15.3-0.9-23c0.4-3.8,1.2-7.7,2.5-11.3c2.6-7.2,8.5-10.6,15.8-11.9
		c7.8-1.5,15.7-1.1,23.5-0.1c3.6,0.5,7.2,1,10.7,1.5c0,3.5,0,6.8,0,10.2c-3.2-0.3-6.2-0.7-9.1-0.8c-5.6-0.2-11.1-0.4-16.7-0.1
		c-5.3,0.3-8.3,3.2-9.5,8.3c-1.8,8.3-1.8,16.6-0.2,24.9c1.2,5.9,5,9,11.3,9C341,176.7,348.9,176.3,357.2,176.1z"/>
	<path d="M370.6,124.2c5.3,0,10.5,0,15.7,0c0,20.9,0,41.8,0,62.8c-5.2,0-10.4,0-15.7,0C370.6,166.1,370.6,145.2,370.6,124.2z"/>
	<path d="M501.2,109.3c-2.2,0-4.2,0-6.4,0c0-9.5,0-18.9,0-28.3c-0.2-0.1-0.3-0.2-0.5-0.3c-0.3,0.5-0.8,0.9-1,1.5
		c-3,8.4-5.9,16.9-8.9,25.3c0,0.1-0.1,0.3-0.2,0.5c-2.2,0-4.4,0-6.7,0c-3-8.6-6-17.1-9-25.6c-0.2-0.6-0.6-1.1-0.9-1.6
		c-0.2,0.1-0.3,0.1-0.5,0.2c0,9.4,0,18.9,0,28.4c-2.2,0-4.3,0-6.4,0c0-11.4,0-22.9,0-34.5c3.6,0,7.3,0,11.2,0
		c2.9,8.8,5.9,17.8,9,27.2c3.1-9.3,6-18.2,9-27.2c3.7,0,7.4,0,11.2,0C501.2,86.3,501.2,97.8,501.2,109.3z"/>
	<path d="M337.9,109.3c-2.2,0-4.2,0-6.3,0c0-11.4,0-22.9,0-34.5c3.7,0,7.4,0,11.2,0c2.4,5.8,4.8,11.7,7.2,17.5
		c1.5,3.8,3.1,7.6,4.7,11.3c0.2,0.4,0.7,0.7,1,1.1c0.1-0.1,0.2-0.2,0.3-0.3c0-9.8,0-19.6,0-29.6c2.1,0,4.1,0,6.2,0
		c0,11.5,0,22.9,0,34.5c-3.7,0-7.3,0-11,0c-3.9-9.2-7.7-18.5-11.6-27.7c-0.2-0.5-0.3-1-0.6-1.5c-0.2-0.3-0.6-0.5-1.1-0.9
		C337.9,89.5,337.9,99.4,337.9,109.3z"/>
	<path d="M453.3,109.3c-2.3,0-4.3,0-6.4,0c-0.7-2.4-1.4-4.9-2.2-7.3c-5.2,0-10.3,0-15.6,0c-0.7,2.4-1.4,4.9-2.2,7.3
		c-2.1,0-4.2,0-6.4,0c3.3-11.6,6.6-23.1,9.9-34.5c4.3,0,8.5,0,12.9,0C446.7,86.2,450,97.7,453.3,109.3z M430.4,97c4.4,0,8.6,0,13,0
		c-1.7-6-3.3-11.8-4.9-17.6c-1,0-2,0-3.1,0C433.8,85.2,432.1,91.1,430.4,97z"/>
	<path d="M291.6,74.8c2.2,0,4.1,0,6.4,0c0,0.6,0,1.1,0,1.6c0,7,0.1,14.1,0,21.1c-0.1,5.9,3.2,7.6,7.7,7.7c1.3,0,2.6-0.1,3.9-0.3
		c3.1-0.6,4.9-2.8,4.9-6c0-7.4,0-14.9,0-22.3c0-0.5,0-1.1,0-1.7c2.2,0,4.3,0,6.4,0c0,0.4,0.1,0.9,0.1,1.3c0,7.3,0,14.7,0,22
		c0,6.9-3.4,10.7-10.2,11.5c-4.1,0.5-8.1,0.6-12-0.6c-4.3-1.3-6.9-4.3-7.1-8.7C291.4,91.8,291.6,83.3,291.6,74.8z"/>
	<path d="M518.6,98.5c0,3.7,0,7.2,0,10.8c-2.2,0-4.3,0-6.4,0c0-11.5,0-22.9,0-34.5c0.3,0,0.5-0.1,0.7-0.1c5.6,0,11.1,0,16.7,0.2
		c5.2,0.2,9.1,2.8,10.2,7.1c1.2,4.8,1.1,9.5-2.7,13.4c-2.1,2.1-4.9,3-7.8,3.1C525.8,98.6,522.3,98.5,518.6,98.5z M518.7,93.6
		c3.5,0,7,0.2,10.4-0.1c2.2-0.2,3.9-1.6,4.3-3.8c0.4-1.9,0.4-4,0.2-5.9c-0.3-2.4-2-3.9-4.3-4.1c-3.5-0.3-7-0.1-10.6-0.1
		C518.7,84.3,518.7,89,518.7,93.6z"/>
	<path d="M415.5,75.6c-0.1,1.5-0.2,2.9-0.3,4.2c-3.6-0.2-7.1-0.6-10.6-0.6c-5.5-0.1-7.9,1.7-8.6,7.1c-0.5,3.9-0.5,8,0,12
		c0.6,5.1,3,6.8,8.2,7c1.8,0,3.6-0.1,5.4-0.2c1.8-0.1,3.6-0.3,5.5-0.5c0.1,1.4,0.2,2.9,0.2,4.5c-5.5,0.9-10.9,1.6-16.4,0.7
		c-4.8-0.8-8-3.6-9.1-8.5c-1.3-5.8-1.3-11.6-0.2-17.4c1.2-5.8,4.7-8.8,10.8-9.3c4.8-0.4,9.6,0,14.3,1
		C415.1,75.3,415.3,75.5,415.5,75.6z"/>
	<path d="M373.3,74.8c2.1,0,4.2,0,6.3,0c0,11.5,0,23,0,34.5c-2.1,0-4.1,0-6.3,0C373.3,97.8,373.3,86.4,373.3,74.8z"/>
</g>
</svg>
